<svg width="60.000000" height="56.815674" viewBox="0 0 60 56.8157" fill="none" xmlns="http://www.w3.org/2000/svg" xmlns:xlink="http://www.w3.org/1999/xlink">
	<desc>
			Created with Pixso.
	</desc>
	<defs/>
	<path id="bowls-and-cups" d="M59.98 37.85L57.12 18.64C57.07 13.06 53.69 7.89 47.81 4.43C42.94 1.57 36.62 0 30 0C23.37 0 17.05 1.57 12.18 4.43C6.3 7.89 2.92 13.06 2.87 18.64L0.01 37.85C0 37.92 0 37.98 0 38.05C0 43.7 3.76 48.93 10.32 52.4C15.7 55.25 22.68 56.81 30 56.81C37.31 56.81 44.29 55.25 49.67 52.4C56.23 48.93 60 43.7 60 38.05C59.99 37.98 59.99 37.92 59.98 37.85ZM13.56 6.79C18.02 4.17 23.85 2.72 30 2.72C36.14 2.72 41.97 4.17 46.43 6.79C51.49 9.76 54.39 14.12 54.39 18.76C54.39 23.39 51.49 27.75 46.43 30.73C41.97 33.34 36.14 34.79 30 34.79C23.85 34.79 18.02 33.34 13.56 30.73C8.5 27.75 5.6 23.39 5.6 18.76C5.6 14.12 8.5 9.76 13.56 6.79ZM30 32.06C39.35 32.06 47.6 28.44 50.53 23.05C51.29 21.68 51.67 20.23 51.67 18.75C51.67 15.06 49.31 11.65 45.05 9.14C41 6.76 35.66 5.45 30 5.45C24.33 5.45 18.99 6.76 14.95 9.14C10.68 11.65 8.32 15.06 8.32 18.76C8.32 20.23 8.7 21.68 9.46 23.05C12.39 28.44 20.64 32.06 30 32.06ZM11.05 18.76C11.05 16.07 12.93 13.49 16.33 11.49C19.96 9.36 24.81 8.18 30 8.18C35.18 8.18 40.03 9.36 43.66 11.49C47.06 13.49 48.94 16.07 48.94 18.76C48.94 18.99 48.92 19.23 48.89 19.47C45.13 15.36 37.96 12.74 30 12.74C22.03 12.74 14.86 15.36 11.1 19.47C11.07 19.23 11.05 18.99 11.05 18.76ZM30 29.33C22.15 29.33 15.02 26.51 12.25 22.4C15.02 18.28 22.15 15.47 30 15.47C37.84 15.47 44.97 18.28 47.74 22.4C44.97 26.51 37.84 29.33 30 29.33ZM23.88 21.89L23.46 21.89C22.71 21.89 22.09 22.5 22.09 23.26C22.09 24.01 22.71 24.62 23.46 24.62L23.88 24.62C24.63 24.62 25.24 24.01 25.24 23.26C25.24 22.5 24.63 21.89 23.88 21.89ZM30.34 21.89L40.07 21.89C40.82 21.89 41.43 22.5 41.43 23.26C41.43 24.01 40.82 24.62 40.07 24.62L30.34 24.62C29.58 24.62 28.97 24.01 28.97 23.26C28.97 22.5 29.58 21.89 30.34 21.89ZM48.39 49.99C43.4 52.63 36.87 54.08 30 54.08C23.12 54.08 16.59 52.63 11.6 49.99C6 47.03 2.77 42.72 2.72 38.15L4.6 25.53C6.17 28.46 8.75 31.06 12.18 33.08C17.05 35.94 23.37 37.51 30 37.51C36.62 37.51 42.94 35.94 47.81 33.08C51.24 31.06 53.82 28.46 55.39 25.53L57.27 38.15C57.22 42.72 53.99 47.03 48.39 49.99ZM29.46 39.88C29.63 39.8 29.81 39.77 30 39.77C30.18 39.77 30.36 39.8 30.53 39.88C30.7 39.95 30.85 40.05 30.98 40.19C31.87 41.12 34.77 44.33 34.77 46.59C34.77 49.22 32.63 51.36 30 51.36C27.36 51.36 25.22 49.22 25.22 46.59C25.22 44.33 28.12 41.12 29.01 40.19C29.14 40.05 29.29 39.95 29.46 39.88ZM27.95 46.59C27.95 47.72 28.87 48.63 30 48.63C31.12 48.63 32.04 47.72 32.04 46.59C32.04 45.98 31.09 44.52 30 43.19C28.9 44.52 27.95 45.98 27.95 46.59Z" fill="#F1CDB3" fill-opacity="1.000000" fill-rule="evenodd"/>
</svg>
