<svg width="198.870911" height="60.659668" viewBox="0 0 198.871 60.6597" fill="none" xmlns="http://www.w3.org/2000/svg" xmlns:xlink="http://www.w3.org/1999/xlink">
	<desc>
			Created with Pixso.
	</desc>
	<defs/>
	<path d="M64.31 50.9L65.9 50.9L65.9 51.83L64.31 51.83L64.31 58L63.22 58L63.22 51.83L62.07 51.83L62.07 50.9L63.22 50.9L63.22 49.92C63.22 48.71 64.2 48.1 65.21 48.1C65.75 48.1 66.08 48.21 66.25 48.28L65.93 49.22C65.82 49.19 65.64 49.11 65.32 49.11C64.6 49.11 64.31 49.48 64.31 50.18L64.31 50.9ZM126.96 48.98C126.96 49.39 126.61 49.72 126.18 49.72C125.76 49.72 125.4 49.39 125.4 48.98C125.4 48.58 125.76 48.25 126.18 48.25C126.61 48.25 126.96 48.58 126.96 48.98ZM11.42 50.9L10.31 50.9C10.2 49.97 9.33 49.43 8.19 49.43C6.93 49.43 6.1 50.09 6.1 51C6.1 52.01 7.23 52.38 7.93 52.56L8.89 52.82C9.87 53.08 11.55 53.66 11.55 55.43C11.55 56.96 10.31 58.16 8.13 58.16C6.1 58.16 4.85 57.11 4.73 55.56L5.92 55.56C6.01 56.63 7 57.13 8.13 57.13C9.44 57.13 10.44 56.44 10.44 55.41C10.44 54.47 9.55 54.12 8.56 53.84L7.39 53.51C5.92 53.08 4.99 52.33 4.99 51.05C4.99 49.46 6.41 48.41 8.22 48.41C10.05 48.41 11.37 49.48 11.42 50.9ZM17.54 51.79C16.46 51.79 15.67 52.49 15.67 53.73L15.67 58L14.58 58L14.58 48.54L15.67 48.54L15.67 52.01L15.77 52.01C16.1 51.28 16.73 50.81 17.85 50.81C19.3 50.81 20.27 51.67 20.27 53.49L20.27 58L19.18 58L19.18 53.56C19.18 52.44 18.56 51.79 17.54 51.79ZM32.44 48.54L33.52 48.54L33.52 58L32.44 58L32.44 48.54ZM147.44 58L144.02 58L144.02 48.54L147.33 48.54C149.3 48.54 150.23 49.67 150.23 51.05C150.23 52.27 149.51 52.81 148.7 53.03L148.7 53.12C149.56 53.17 150.6 53.99 150.6 55.48C150.6 56.91 149.67 58 147.44 58ZM38.39 50.9L39.9 50.9L39.9 51.83L38.39 51.83L38.39 55.96C38.39 56.89 38.85 57.03 39.33 57.03C39.57 57.03 39.72 57 39.81 56.98L40.03 57.96C39.89 58.01 39.63 58.09 39.22 58.09C38.3 58.09 37.3 57.5 37.3 56.26L37.3 51.83L36.23 51.83L36.23 50.9L37.3 50.9L37.3 49.21L38.39 49.21L38.39 50.9ZM108.25 50.9L109.76 50.9L109.76 51.83L108.25 51.83L108.25 55.96C108.25 56.89 108.71 57.03 109.19 57.03C109.43 57.03 109.58 57 109.67 56.98L109.89 57.96C109.74 58.01 109.49 58.09 109.08 58.09C108.16 58.09 107.16 57.5 107.16 56.26L107.16 51.83L106.09 51.83L106.09 50.9L107.16 50.9L107.16 49.21L108.25 49.21L108.25 50.9ZM172.35 50.9L173.87 50.9L173.87 51.83L172.35 51.83L172.35 55.96C172.35 56.89 172.81 57.03 173.29 57.03C173.53 57.03 173.68 57 173.78 56.98L174 57.96C173.85 58.01 173.59 58.09 173.19 58.09C172.26 58.09 171.26 57.5 171.26 56.26L171.26 51.83L170.19 51.83L170.19 50.9L171.26 50.9L171.26 49.21L172.35 49.21L172.35 50.9ZM145.17 49.56L145.17 52.69L147.29 52.69C148.32 52.69 149.14 52.05 149.14 51.05C149.14 50.22 148.58 49.56 147.33 49.56L145.17 49.56ZM52.73 58L51.64 58L51.64 50.9L52.7 50.9L52.7 51.97L52.77 51.97C53.03 51.27 53.77 50.79 54.62 50.79C54.78 50.79 55.07 50.8 55.19 50.81L55.19 51.92C55.12 51.9 54.81 51.85 54.53 51.85C53.49 51.85 52.73 52.55 52.73 53.51L52.73 58ZM78.58 58L77.49 58L77.49 50.9L78.54 50.9L78.54 51.97L78.62 51.97C78.88 51.27 79.61 50.79 80.46 50.79C80.62 50.79 80.91 50.8 81.03 50.81L81.03 51.92C80.96 51.9 80.66 51.85 80.37 51.85C79.34 51.85 78.58 52.55 78.58 53.51L78.58 58ZM29.36 56.35C29.03 57.42 27.98 58.14 26.54 58.14C24.49 58.14 23.23 56.68 23.23 54.5C23.23 52.33 24.51 50.81 26.43 50.81C27.9 50.81 29.47 51.72 29.47 54.36L29.47 54.82L24.33 54.82C24.38 56.34 25.26 57.16 26.54 57.16C27.39 57.16 28.03 56.8 28.31 56.06L29.36 56.35ZM48.57 56.35C48.24 57.42 47.19 58.14 45.75 58.14C43.7 58.14 42.44 56.68 42.44 54.5C42.44 52.33 43.72 50.81 45.64 50.81C47.11 50.81 48.68 51.72 48.68 54.36L48.68 54.82L43.53 54.82C43.59 56.34 44.47 57.16 45.75 57.16C46.6 57.16 47.24 56.8 47.52 56.06L48.57 56.35ZM74.53 54.49C74.53 56.68 73.24 58.14 71.31 58.14C69.39 58.14 68.1 56.68 68.1 54.49C68.1 52.27 69.39 50.81 71.31 50.81C73.24 50.81 74.53 52.27 74.53 54.49ZM89.67 60.65L88.58 60.65L88.58 50.9L89.64 50.9L89.64 52.03L89.77 52.03C90 51.66 90.43 50.81 91.81 50.81C93.61 50.81 94.85 52.23 94.85 54.47C94.85 56.72 93.61 58.14 91.83 58.14C90.47 58.14 90 57.29 89.77 56.91L89.67 56.91L89.67 60.65ZM103.6 56.35C103.27 57.42 102.22 58.14 100.78 58.14C98.73 58.14 97.47 56.68 97.47 54.5C97.47 52.33 98.75 50.81 100.67 50.81C102.14 50.81 103.72 51.72 103.72 54.36L103.72 54.82L98.57 54.82C98.62 56.34 99.5 57.16 100.78 57.16C101.63 57.16 102.27 56.8 102.55 56.06L103.6 56.35ZM115.08 50.81C116.49 50.81 117.26 51.49 117.6 52.49L116.62 52.77C116.43 52.28 116.04 51.75 115.08 51.75C114.22 51.75 113.57 52.2 113.57 52.81C113.57 53.35 113.95 53.63 114.79 53.84L115.84 54.1C117.11 54.41 117.73 55.03 117.73 56.02C117.73 57.24 116.61 58.14 114.96 58.14C113.51 58.14 112.51 57.5 112.26 56.3L113.29 56.04C113.49 56.8 114.05 57.18 114.94 57.18C115.95 57.18 116.6 56.68 116.6 56.07C116.6 55.59 116.26 55.24 115.55 55.08L114.37 54.8C113.06 54.49 112.48 53.84 112.48 52.86C112.48 51.66 113.59 50.81 115.08 50.81ZM132.91 51.79C131.87 51.79 131.1 52.49 131.1 53.73L131.1 58L130.01 58L130.01 50.9L131.06 50.9L131.06 52.01L131.16 52.01C131.49 51.29 132.15 50.81 133.23 50.81C134.66 50.81 135.62 51.68 135.62 53.49L135.62 58L134.53 58L134.53 53.56C134.53 52.45 133.92 51.79 132.91 51.79ZM159.73 54.49C159.73 56.68 158.43 58.14 156.51 58.14C154.59 58.14 153.3 56.68 153.3 54.49C153.3 52.27 154.59 50.81 156.51 50.81C158.43 50.81 159.73 52.27 159.73 54.49ZM165.2 50.81C166.6 50.81 167.37 51.49 167.71 52.49L166.73 52.77C166.54 52.28 166.15 51.75 165.2 51.75C164.33 51.75 163.68 52.2 163.68 52.81C163.68 53.35 164.06 53.63 164.9 53.84L165.96 54.1C167.22 54.41 167.84 55.03 167.84 56.02C167.84 57.24 166.72 58.14 165.07 58.14C163.62 58.14 162.63 57.5 162.37 56.3L163.41 56.04C163.6 56.8 164.16 57.18 165.05 57.18C166.07 57.18 166.71 56.68 166.71 56.07C166.71 55.59 166.38 55.24 165.66 55.08L164.48 54.8C163.18 54.49 162.6 53.84 162.6 52.86C162.6 51.66 163.7 50.81 165.2 50.81ZM182.83 54.49C182.83 56.68 181.54 58.14 179.62 58.14C177.7 58.14 176.4 56.68 176.4 54.49C176.4 52.27 177.7 50.81 179.62 50.81C181.54 50.81 182.83 52.27 182.83 54.49ZM188.69 51.79C187.65 51.79 186.88 52.49 186.88 53.73L186.88 58L185.79 58L185.79 50.9L186.85 50.9L186.85 52.01L186.94 52.01C187.27 51.29 187.93 50.81 189.01 50.81C190.44 50.81 191.41 51.68 191.41 53.49L191.41 58L190.32 58L190.32 53.56C190.32 52.45 189.7 51.79 188.69 51.79ZM126.71 58L125.63 58L125.63 50.9L126.71 50.9L126.71 58ZM26.43 51.79C25.18 51.79 24.4 52.77 24.33 53.88L28.37 53.88C28.37 52.68 27.61 51.79 26.43 51.79ZM45.64 51.79C44.39 51.79 43.61 52.77 43.53 53.88L47.57 53.88C47.57 52.68 46.82 51.79 45.64 51.79ZM69.19 54.49C69.19 55.91 69.85 57.16 71.31 57.16C72.77 57.16 73.44 55.91 73.44 54.49C73.44 53.07 72.77 51.79 71.31 51.79C69.85 51.79 69.19 53.07 69.19 54.49ZM91.69 51.79C90.36 51.79 89.66 52.86 89.66 54.45C89.66 56.06 90.38 57.16 91.69 57.16C93.05 57.16 93.75 55.96 93.75 54.45C93.75 52.96 93.07 51.79 91.69 51.79ZM100.67 51.79C99.42 51.79 98.64 52.77 98.57 53.88L102.61 53.88C102.61 52.68 101.85 51.79 100.67 51.79ZM154.39 54.49C154.39 55.91 155.05 57.16 156.51 57.16C157.97 57.16 158.64 55.91 158.64 54.49C158.64 53.07 157.97 51.79 156.51 51.79C155.05 51.79 154.39 53.07 154.39 54.49ZM177.49 54.49C177.49 55.91 178.16 57.16 179.62 57.16C181.07 57.16 181.74 55.91 181.74 54.49C181.74 53.07 181.07 51.79 179.62 51.79C178.16 51.79 177.49 53.07 177.49 54.49ZM145.17 53.69L145.17 56.98L147.44 56.98C148.93 56.98 149.51 56.32 149.51 55.48C149.51 54.52 148.73 53.69 147.5 53.69L145.17 53.69Z" fill="#FFFFFF" fill-opacity="1.000000" fill-rule="evenodd"/>
	<path d="M12.17 5.4C16.86 5.4 20.67 8.22 21.54 13L18.72 13C18.04 9.77 15.27 8.04 12.17 8.04C7.95 8.04 4.63 11.32 4.63 17.36C4.63 23.4 7.95 26.67 12.17 26.67C15.27 26.67 18.04 24.95 18.72 21.72L21.54 21.72C20.67 26.5 16.86 29.32 12.17 29.32C6.22 29.32 1.9 24.72 1.9 17.36C1.9 10 6.22 5.4 12.17 5.4ZM101.73 29L98.92 29L98.92 5.72L101.73 5.72L101.73 16.09L114.14 16.09L114.14 5.72L116.96 5.72L116.96 29L114.14 29L114.14 18.59L101.73 18.59L101.73 29ZM42.64 20.36C42.64 25.77 39.46 29.36 34.73 29.36C30.01 29.36 26.82 25.77 26.82 20.36C26.82 14.9 30.01 11.32 34.73 11.32C39.46 11.32 42.64 14.9 42.64 20.36ZM139.15 20.36C139.15 25.77 135.97 29.36 131.24 29.36C126.52 29.36 123.33 25.77 123.33 20.36C123.33 14.9 126.52 11.32 131.24 11.32C135.97 11.32 139.15 14.9 139.15 20.36ZM171.85 11.32C175.31 11.32 177.2 12.97 178.04 15.45L175.63 16.13C175.16 14.92 174.2 13.63 171.85 13.63C169.72 13.63 168.13 14.72 168.13 16.22C168.13 17.57 169.06 18.25 171.13 18.77L173.72 19.4C176.84 20.17 178.35 21.7 178.35 24.13C178.35 27.14 175.59 29.36 171.54 29.36C167.97 29.36 165.52 27.78 164.9 24.82L167.45 24.17C167.92 26.05 169.3 27 171.49 27C173.99 27 175.59 25.77 175.59 24.27C175.59 23.07 174.75 22.22 172.99 21.82L170.09 21.13C166.88 20.38 165.45 18.77 165.45 16.36C165.45 13.4 168.17 11.32 171.85 11.32ZM198.59 24.95C197.77 27.59 195.19 29.36 191.64 29.36C186.59 29.36 183.5 25.77 183.5 20.4C183.5 15.04 186.64 11.32 191.37 11.32C195 11.32 198.87 13.54 198.87 20.04L198.87 21.17L186.19 21.17C186.32 24.92 188.49 26.95 191.64 26.95C193.74 26.95 195.32 26.04 196 24.22L198.59 24.95ZM61.83 29L48.15 29L48.15 26.95L58.07 14.22L58.07 14.04L48.47 14.04L48.47 11.54L61.52 11.54L61.52 13.67L51.88 26.32L51.88 26.5L61.83 26.5L61.83 29ZM74.76 31.54C73.74 34.25 72.04 35.54 69.62 35.54C68.71 35.54 67.94 35.36 67.66 35.22L68.34 32.86C70.3 33.36 71.51 33.11 72.48 30.45L72.98 29.09L66.53 11.54L69.44 11.54L74.26 25.45L74.44 25.45L79.26 11.54L82.16 11.54L74.76 31.54ZM151.66 26.63C153.66 26.63 156.16 25.13 156.16 21.86L156.16 11.54L158.84 11.54L158.84 29L156.16 29L156.16 26.04L155.98 26.04C155.16 27.82 153.43 29.22 150.8 29.22C147.53 29.22 145.16 27.09 145.16 22.63L145.16 11.54L147.84 11.54L147.84 22.45C147.84 25 149.43 26.63 151.66 26.63ZM29.51 20.36C29.51 23.86 31.14 26.95 34.73 26.95C38.32 26.95 39.96 23.86 39.96 20.36C39.96 16.86 38.32 13.72 34.73 13.72C31.14 13.72 29.51 16.86 29.51 20.36ZM126.02 20.36C126.02 23.86 127.65 26.95 131.24 26.95C134.83 26.95 136.47 23.86 136.47 20.36C136.47 16.86 134.83 13.72 131.24 13.72C127.65 13.72 126.02 16.86 126.02 20.36ZM191.37 13.72C188.3 13.72 186.37 16.14 186.19 18.86L196.14 18.86C196.14 15.9 194.27 13.72 191.37 13.72Z" fill="#F1CDB3" fill-opacity="1.000000" fill-rule="evenodd"/>
</svg>
