<svg width="31.304321" height="60.000000" viewBox="0 0 31.3043 60" fill="none" xmlns="http://www.w3.org/2000/svg" xmlns:xlink="http://www.w3.org/1999/xlink">
	<desc>
			Created with Pixso.
	</desc>
	<defs/>
	<path id="shampoos" d="M23.47 17.18L23.47 11.73C23.47 11.01 22.89 10.43 22.17 10.43L21.19 10.43L21.19 1.3C21.19 0.58 20.61 0 19.89 0L11.41 0C10.69 0 10.1 0.58 10.1 1.3L10.1 10.43L9.13 10.43C8.41 10.43 7.82 11.01 7.82 11.73L7.82 17.18C3.24 19 0 23.48 0 28.71L0 58.69C0 59.41 0.58 60 1.3 60L30 60C30.72 60 31.3 59.41 31.3 58.69L31.3 28.71C31.3 23.48 28.05 19 23.47 17.18ZM12.71 2.6L18.58 2.6L18.58 10.43L12.71 10.43L12.71 2.6ZM10.43 13.04L20.86 13.04L20.86 16.3L10.43 16.3L10.43 13.04ZM28.69 57.39L2.6 57.39L2.6 28.71C2.6 23.3 7 18.91 12.4 18.91L18.89 18.91C24.29 18.91 28.69 23.3 28.69 28.71L28.69 57.39ZM24.13 27.39L7.17 27.39C6.45 27.39 5.86 27.97 5.86 28.69L5.86 52.82C5.86 53.54 6.45 54.13 7.17 54.13L24.13 54.13C24.85 54.13 25.43 53.54 25.43 52.82L25.43 44.62C25.43 43.9 24.85 43.32 24.13 43.32C23.41 43.32 22.82 43.9 22.82 44.62L22.82 51.52L8.47 51.52L8.47 30L22.82 30L22.82 34.12C22.82 34.84 23.41 35.43 24.13 35.43C24.85 35.43 25.43 34.84 25.43 34.12L25.43 28.69C25.43 27.97 24.85 27.39 24.13 27.39ZM17.28 32.07C19.43 32.07 21.19 33.82 21.19 35.98C21.19 38.14 19.43 39.89 17.28 39.89C15.12 39.89 13.36 38.14 13.36 35.98C13.36 33.82 15.12 32.07 17.28 32.07ZM15.97 35.98C15.97 36.7 16.56 37.28 17.28 37.28C17.99 37.28 18.58 36.7 18.58 35.98C18.58 35.26 17.99 34.68 17.28 34.68C16.56 34.68 15.97 35.26 15.97 35.98ZM22.82 39.36C22.82 38.64 23.4 38.06 24.13 38.06C24.85 38.06 25.43 38.64 25.43 39.36L25.43 39.49C25.43 40.21 24.85 40.8 24.13 40.8C23.4 40.8 22.82 40.21 22.82 39.49L22.82 39.36ZM14.34 41.15C12.18 41.15 10.42 42.9 10.42 45.06C10.42 47.22 12.18 48.97 14.34 48.97C16.49 48.97 18.25 47.22 18.25 45.06C18.25 42.9 16.49 41.15 14.34 41.15ZM14.34 46.36C13.62 46.36 13.03 45.78 13.03 45.06C13.03 44.34 13.62 43.76 14.34 43.76C15.05 43.76 15.64 44.34 15.64 45.06C15.64 45.78 15.05 46.36 14.34 46.36Z" fill="#F1CDB3" fill-opacity="1.000000" fill-rule="evenodd"/>
</svg>
